<svg xmlns="http://www.w3.org/2000/svg" viewBox="0 0 1080 1080"><path  d="M810,540s0,87.62-11.85,130.25c-7.07,23.7-23.7,40.27-47.35,47.35-42.63,11.85-210.74,11.85-210.74,11.85,0,0-168.17,0-210.74-11.85-23.7-7.07-40.27-23.7-47.35-47.35-11.98-42.63-11.98-130.25-11.98-130.25,0,0,0-87.62,11.85-130.25,7.07-23.7,23.7-42.63,47.35-47.35,42.63-11.85,210.74-11.85,210.74-11.85,0,0,168.17,0,210.74,11.85,23.7,7.07,40.27,23.7,47.35,47.35,11.98,42.63,11.98,130.25,11.98,130.25M487.87,620.55l139.75-80.55-139.75-80.48v161.03h0Z"/></svg>