<svg xmlns="http://www.w3.org/2000/svg" viewBox="0 0 1080 1080"><path  d="M810,798.04h-117.08v-186.39c0-47.77-16.72-78.82-59.73-78.82-31.05,0-50.15,21.47-59.73,43.01-2.38,7.14-4.76,16.72-4.76,28.67v193.52h-117.08s2.38-317.8,0-348.86h117.08v50.15c14.34-23.92,43.01-57.35,105.12-57.35,76.45,0,133.79,50.15,133.79,157.71v198.28l2.38.06h0ZM334.49,401.42h0c-40.63,0-64.49-26.3-64.49-59.73s26.3-59.73,66.93-59.73,64.49,26.3,64.49,59.73c-2.44,33.43-28.67,59.73-66.93,59.73M391.84,798.04h-117.08v-348.86h117.08v348.86h0Z"/></svg>
