<svg viewBox="0 0 129 130" xmlns="http://www.w3.org/2000/svg">
<g id="Group 726">
<circle id="Ellipse 21" cx="64.5" cy="65.0286" r="64.5" fill="#D83C29"/>
<path id="&#226;&#128;&#156;" d="M61.6237 76.4629C61.6237 84.7684 54.9786 91.4834 46.5847 91.4834C37.8412 91.4834 31.196 84.0615 31.196 74.3423C31.196 63.5629 38.1909 50.4862 46.9345 38.4697H61.274C55.5032 47.1286 51.4811 54.3738 48.8581 61.619C56.2027 62.6793 61.6237 69.041 61.6237 76.4629ZM98.3467 76.4629C98.3467 84.7684 91.7016 91.4834 83.3078 91.4834C74.5642 91.4834 67.9191 84.0615 67.9191 74.3423C67.9191 63.5629 74.9139 50.4862 83.6575 38.4697H97.997C92.2262 47.1286 88.2042 54.3738 85.5811 61.619C92.9257 62.6793 98.3467 69.041 98.3467 76.4629Z" fill="white"/>
</g>
</svg>
