<svg viewBox="0 0 40 40" fill="none" xmlns="http://www.w3.org/2000/svg">
<path d="M18.7798 21.123C19.0923 21.5495 19.4909 21.9025 19.9487 22.1579C20.4065 22.4133 20.9128 22.5651 21.4331 22.6032C21.9535 22.6412 22.4757 22.5646 22.9645 22.3784C23.4533 22.1922 23.8971 21.9009 24.2659 21.5242L26.4488 19.2954C27.1115 18.5948 27.4782 17.6564 27.4699 16.6824C27.4616 15.7084 27.079 14.7767 26.4045 14.088C25.7299 13.3993 24.8175 13.0086 23.8636 13.0001C22.9097 12.9917 21.9907 13.3661 21.3046 14.0428L20.0531 15.3132" stroke="black" stroke-width="2.5" stroke-linecap="round" stroke-linejoin="round"/>
<path d="M21.6902 19.6371C21.3778 19.2106 20.9791 18.8577 20.5213 18.6023C20.0635 18.3469 19.5572 18.195 19.0369 18.157C18.5166 18.1189 17.9943 18.1956 17.5055 18.3817C17.0167 18.5679 16.5729 18.8592 16.2041 19.2359L14.0212 21.4648C13.3585 22.1654 12.9918 23.1037 13.0001 24.0777C13.0084 25.0517 13.391 25.9834 14.0656 26.6721C14.7401 27.3608 15.6525 27.7515 16.6064 27.76C17.5603 27.7684 18.4793 27.394 19.1654 26.7174L20.4096 25.4469" stroke="black" stroke-width="2.5" stroke-linecap="round" stroke-linejoin="round"/>
</svg>
