<?xml version="1.0" encoding="UTF-8" standalone="no"?>
<!-- Created with Inkscape (http://www.inkscape.org/) -->

<svg
   version="1.1"
   id="svg2"
   width="371.26532"
   height="263.21866"
   viewBox="0 0 371.26532 263.21866"
   sodipodi:docname="tripavisor_logo.ai"
   xmlns:inkscape="http://www.inkscape.org/namespaces/inkscape"
   xmlns:sodipodi="http://sodipodi.sourceforge.net/DTD/sodipodi-0.dtd"
   xmlns="http://www.w3.org/2000/svg"
   xmlns:svg="http://www.w3.org/2000/svg">
  <defs
     id="defs6">
    <clipPath
       clipPathUnits="userSpaceOnUse"
       id="clipPath16">
      <path
         d="M 0,197.414 H 278.449 V 0 H 0 Z"
         id="path14" />
    </clipPath>
  </defs>
  <sodipodi:namedview
     id="namedview4"
     pagecolor="#ffffff"
     bordercolor="#000000"
     borderopacity="0.25"
     inkscape:showpageshadow="2"
     inkscape:pageopacity="0.0"
     inkscape:pagecheckerboard="0"
     inkscape:deskcolor="#d1d1d1" />
  <g
     id="g8"
     inkscape:groupmode="layer"
     inkscape:label="tripavisor_logo"
     transform="matrix(1.3333333,0,0,-1.3333333,0,263.21867)">
    <g
       id="g10">
      <g
         id="g12"
         clip-path="url(#clipPath16)">
        <g
           id="g18"
           transform="translate(102.6831,148.1387)">
          <path
             d="m 0,0 c 10.109,4.402 22.662,6.777 35.287,6.777 12.642,0 24.099,-2.382 34.22,-6.802 C 50.507,-0.607 35.283,-16.18 35.279,-35.318 35.275,-15.83 19.486,-0.027 0,0"
             style="fill:#ffdf9e;fill-opacity:1;fill-rule:nonzero;stroke:none"
             id="path20" />
        </g>
        <g
           id="g22"
           transform="translate(102.6831,148.1387)">
          <path
             d="m 0,0 c 10.109,4.402 22.662,6.777 35.287,6.777 12.642,0 24.099,-2.382 34.22,-6.802 C 50.507,-0.607 35.283,-16.18 35.279,-35.318 35.275,-15.83 19.486,-0.027 0,0 Z"
             style="fill:none;stroke:#ffdf9e;stroke-width:1;stroke-linecap:butt;stroke-linejoin:miter;stroke-miterlimit:10;stroke-dasharray:none;stroke-opacity:1"
             id="path24" />
        </g>
        <g
           id="g26"
           transform="translate(101.6196,118.6621)">
          <path
             d="m 0,0 c -3.184,0 -5.764,-2.58 -5.764,-5.764 0,-3.187 2.58,-5.765 5.764,-5.765 3.184,0 5.764,2.578 5.764,5.765 C 5.764,-2.58 3.184,0 0,0"
             style="fill:#ec2227;fill-opacity:1;fill-rule:nonzero;stroke:none"
             id="path28" />
        </g>
        <g
           id="g30"
           transform="translate(172.6821,118.7422)">
          <path
             d="m 0,0 c -3.184,0 -5.766,-2.578 -5.766,-5.766 0,-3.187 2.582,-5.765 5.766,-5.765 3.184,0 5.762,2.578 5.762,5.765 C 5.762,-2.578 3.184,0 0,0"
             style="fill:#07a64f;fill-opacity:1;fill-rule:nonzero;stroke:none"
             id="path32" />
        </g>
        <g
           id="g34"
           transform="translate(173.561,101.0938)">
          <path
             d="m 0,0 c -6.562,0 -11.883,5.32 -11.883,11.883 0,6.566 5.321,11.887 11.883,11.887 6.562,0 11.883,-5.321 11.883,-11.887 C 11.883,5.32 6.562,0 0,0 m 0,29.033 c -9.473,0 -17.148,-7.676 -17.148,-17.15 0,-9.469 7.675,-17.149 17.148,-17.149 9.469,0 17.148,7.68 17.148,17.149 0,9.474 -7.679,17.15 -17.148,17.15 m 0.012,-45.76 c -15.711,0 -28.446,12.735 -28.446,28.446 0,15.705 12.735,28.441 28.446,28.441 15.707,0 28.441,-12.736 28.441,-28.441 0,-15.711 -12.734,-28.446 -28.441,-28.446 m -70.61,63.772 c 10.11,4.402 22.662,6.777 35.285,6.777 12.645,0 24.102,-2.383 34.223,-6.802 -19,-0.582 -34.226,-16.155 -34.23,-35.293 -0.004,19.488 -15.793,35.291 -35.278,35.318 m -0.054,-63.772 c -15.709,0 -28.444,12.735 -28.444,28.446 0,15.705 12.735,28.441 28.444,28.441 15.709,0 28.445,-12.736 28.445,-28.441 0,-15.711 -12.736,-28.446 -28.445,-28.446 m 106.3,63.28 H 12.035 c -12.043,8.103 -28.488,13.166 -47.348,13.166 -18.867,0 -36.441,-5.059 -48.484,-13.166 h -22.494 c 3.668,-4.291 6.383,-10.098 7.059,-14.086 -4.241,-5.826 -6.752,-12.992 -6.752,-20.748 0,-19.516 15.818,-35.336 35.332,-35.336 11.072,0 20.951,5.101 27.429,13.07 2.643,-3.086 7.016,-9.297 7.903,-11.101 0,0 5.074,7.578 7.925,11.07 6.477,-7.953 16.348,-13.039 27.407,-13.039 19.511,0 35.332,15.82 35.332,35.336 0,7.752 -2.516,14.912 -6.754,20.736 0.672,3.988 3.387,9.801 7.058,14.098 M -71.063,-0.078 c -6.562,0 -11.882,5.32 -11.882,11.883 0,6.564 5.32,11.884 11.882,11.884 6.565,0 11.885,-5.32 11.885,-11.884 0,-6.563 -5.32,-11.883 -11.885,-11.883 m 0,29.033 c -9.47,0 -17.148,-7.68 -17.148,-17.15 0,-9.477 7.678,-17.149 17.148,-17.149 9.473,0 17.151,7.672 17.151,17.149 0,9.47 -7.678,17.15 -17.151,17.15"
             style="fill:#000000;fill-opacity:1;fill-rule:nonzero;stroke:none"
             id="path36" />
        </g>
        <g
           id="g38"
           transform="translate(217.1548,144.5937)">
          <path
             d="M 0,0 C 0.641,0 0.738,0 0.898,0.051 1.258,0.166 1.285,0.422 1.285,0.678 1.285,1.004 1.172,1.164 0.949,1.24 0.773,1.299 0.633,1.299 0,1.299 Z m 0,-2.668 h -1.117 v 4.695 h 1.664 c 0.836,0 1.898,-0.101 1.898,-1.361 0,-0.596 -0.261,-1.051 -0.984,-1.248 L 2.586,-2.668 H 1.355 l -0.976,1.92 H 0 Z"
             style="fill:#231f20;fill-opacity:1;fill-rule:nonzero;stroke:none"
             id="path40" />
        </g>
        <g
           id="g42"
           transform="translate(217.8892,140.6445)">
          <path
             d="m 0,0 c -1.914,0 -3.469,1.553 -3.469,3.469 0,1.916 1.555,3.468 3.469,3.468 1.914,0 3.469,-1.552 3.469,-3.468 C 3.469,1.553 1.914,0 0,0 m 0,7.738 c -2.359,0 -4.27,-1.912 -4.27,-4.269 0,-2.358 1.911,-4.268 4.27,-4.268 2.359,0 4.27,1.91 4.27,4.268 0,2.357 -1.911,4.269 -4.27,4.269"
             style="fill:#231f20;fill-opacity:1;fill-rule:nonzero;stroke:none"
             id="path44" />
        </g>
        <g
           id="g46"
           transform="translate(246.4282,46.7813)">
          <path
             d="M 0,0 C 0.641,0 0.738,0 0.898,0.055 1.258,0.164 1.285,0.422 1.285,0.68 1.285,1.008 1.172,1.164 0.949,1.242 0.773,1.297 0.633,1.297 0,1.297 Z m 0,-2.664 h -1.117 v 4.695 h 1.664 c 0.836,0 1.898,-0.101 1.898,-1.367 0,-0.594 -0.261,-1.047 -0.984,-1.242 L 2.586,-2.664 H 1.355 L 0.379,-0.75 H 0 Z"
             style="fill:#07a64f;fill-opacity:1;fill-rule:nonzero;stroke:none"
             id="path48" />
        </g>
        <g
           id="g50"
           transform="translate(247.1626,42.8359)">
          <path
             d="m 0,0 c -1.914,0 -3.469,1.555 -3.469,3.469 0,1.914 1.555,3.468 3.469,3.468 1.914,0 3.469,-1.554 3.469,-3.468 C 3.469,1.555 1.914,0 0,0 m 0,7.734 c -2.359,0 -4.27,-1.906 -4.27,-4.265 0,-2.36 1.911,-4.274 4.27,-4.274 2.359,0 4.27,1.914 4.27,4.274 0,2.359 -1.911,4.265 -4.27,4.265"
             style="fill:#07a64f;fill-opacity:1;fill-rule:nonzero;stroke:none"
             id="path52" />
        </g>
        <g
           id="g54"
           transform="translate(41.4673,44.8125)">
          <path
             d="M 0,0 V 3.875 H -6.312 V 9.672 L -11.166,8.227 V 3.875 h -3.721 V 0 h 3.721 v -12.422 c 0,-5.523 2.256,-8.328 6.709,-8.328 1.598,0 2.988,0.219 4.131,0.648 l 0.139,0.055 -0.219,3.82 -0.242,-0.07 c -0.649,-0.187 -1.502,-0.281 -2.538,-0.281 -1.099,0 -1.876,0.328 -2.371,1 -0.502,0.687 -0.755,1.851 -0.755,3.445 V 0 Z"
             style="fill:#231f20;fill-opacity:1;fill-rule:nonzero;stroke:none"
             id="path56" />
        </g>
        <g
           id="g58"
           transform="translate(58.2349,49.125)">
          <path
             d="m 0,0 c -0.521,0.07 -0.93,0.102 -1.25,0.102 -1.49,0 -2.889,-0.485 -4.156,-1.438 -1.057,-0.789 -1.895,-1.852 -2.5,-3.164 l -0.252,4.063 h -4.414 l 0.013,-0.211 c 0.131,-1.946 0.196,-4.477 0.196,-7.524 v -16.351 h 4.951 v 12.726 c 0,2.32 0.58,4.125 1.723,5.375 1.136,1.235 2.515,1.867 4.097,1.867 0.584,0 1.098,-0.047 1.524,-0.14 L 0.174,-4.75 v 4.727 z"
             style="fill:#231f20;fill-opacity:1;fill-rule:nonzero;stroke:none"
             id="path60" />
        </g>
        <path
           d="m 62.711,24.602 h 4.951 v 24.086 h -4.951 z"
           style="fill:#231f20;fill-opacity:1;fill-rule:nonzero;stroke:none"
           id="path62" />
        <g
           id="g64"
           transform="translate(65.1626,52.5938)">
          <path
             d="M 0,0 C 0.934,0 1.697,0.305 2.271,0.891 2.846,1.484 3.137,2.219 3.137,3.086 3.137,3.938 2.84,4.664 2.258,5.25 1.676,5.828 0.932,6.125 0.049,6.125 -0.867,6.125 -1.627,5.828 -2.209,5.25 -2.793,4.664 -3.088,3.938 -3.088,3.086 -3.088,2.219 -2.797,1.484 -2.223,0.891 -1.648,0.305 -0.9,0 0,0"
             style="fill:#231f20;fill-opacity:1;fill-rule:nonzero;stroke:none"
             id="path66" />
        </g>
        <g
           id="g68"
           transform="translate(79.606,43.9375)">
          <path
             d="m 0,0 c 1.055,0.758 2.227,1.148 3.486,1.148 1.991,0 3.543,-0.75 4.744,-2.296 1.206,-1.555 1.817,-3.555 1.817,-5.946 0,-2.672 -0.619,-4.82 -1.838,-6.375 -1.219,-1.554 -2.824,-2.312 -4.91,-2.312 -1.684,0 -3.143,0.625 -4.338,1.851 -1.197,1.227 -1.805,2.766 -1.805,4.578 v 3.821 c 0,0.679 0.213,1.586 0.631,2.711 0.41,1.101 1.154,2.047 2.213,2.82 m 12.17,1.93 c -1.932,2.304 -4.383,3.476 -7.289,3.476 -3.52,0 -6.272,-1.383 -8.192,-4.109 l -0.201,3.57 h -4.502 l 0.022,-0.336 c 0.123,-1.992 0.185,-4.601 0.185,-7.765 v -25.914 h 4.963 v 12.328 c 0.688,-0.899 1.565,-1.625 2.615,-2.164 1.319,-0.672 2.788,-1.008 4.366,-1.008 3.103,0 5.73,1.203 7.806,3.57 2.067,2.359 3.114,5.563 3.114,9.524 0,3.562 -0.971,6.539 -2.887,8.828"
             style="fill:#231f20;fill-opacity:1;fill-rule:nonzero;stroke:none"
             id="path70" />
        </g>
        <g
           id="g72"
           transform="translate(109.8696,29.3906)">
          <path
             d="m 0,0 c -1.129,-1.031 -2.551,-1.555 -4.219,-1.555 -1.166,0 -2.111,0.344 -2.812,1.016 -0.698,0.664 -1.051,1.609 -1.051,2.805 0,1.531 0.697,2.711 2.133,3.593 1.418,0.875 3.99,1.328 7.646,1.344 V 3.484 C 1.697,2.195 1.127,1.023 0,0 M 6.939,-4.555 C 6.682,-3.141 6.551,-1.242 6.551,1.086 V 9.75 c 0,3.234 -0.813,5.75 -2.414,7.477 -1.608,1.734 -4.008,2.609 -7.133,2.609 -3.188,0 -5.973,-0.734 -8.279,-2.188 l -0.135,-0.078 1.162,-3.375 0.213,0.133 c 1.851,1.18 3.988,1.781 6.353,1.781 1.748,0 3.078,-0.453 3.955,-1.351 C 1.154,13.867 1.6,12.594 1.6,10.977 V 10.734 C -3.113,10.711 -6.762,9.938 -9.242,8.43 c -2.547,-1.547 -3.84,-3.821 -3.84,-6.758 0,-1.922 0.703,-3.586 2.09,-4.945 1.387,-1.368 3.254,-2.055 5.549,-2.055 3.101,0 5.578,1.109 7.369,3.297 l 0.488,-2.758 h 4.568 z"
             style="fill:#07a64f;fill-opacity:1;fill-rule:nonzero;stroke:none"
             id="path74" />
        </g>
        <g
           id="g76"
           transform="translate(136.7056,38.75)">
          <path
             d="m 0,0 v -3.766 c 0,-2.039 -0.619,-3.687 -1.844,-4.906 -1.226,-1.211 -2.64,-1.828 -4.205,-1.828 -2.08,0 -3.654,0.758 -4.81,2.32 -1.161,1.571 -1.75,3.578 -1.75,5.977 0,2.555 0.623,4.656 1.851,6.242 1.225,1.578 2.797,2.344 4.803,2.344 1.625,0 3.037,-0.586 4.201,-1.75 C -0.59,3.469 0,1.906 0,0 m 5.176,-14.266 -0.028,0.344 c -0.121,1.492 -0.183,3.57 -0.183,6.188 V 21.219 H 0 V 7.641 c -0.654,0.781 -1.475,1.429 -2.447,1.937 -1.289,0.68 -2.768,1.016 -4.393,1.016 -3.043,0 -5.633,-1.235 -7.693,-3.672 -2.049,-2.422 -3.086,-5.594 -3.086,-9.422 0,-3.531 0.986,-6.5 2.935,-8.805 1.959,-2.32 4.444,-3.5 7.379,-3.5 1.819,0 3.469,0.43 4.907,1.289 1.142,0.68 2.082,1.594 2.804,2.711 l 0.27,-3.461 z"
             style="fill:#07a64f;fill-opacity:1;fill-rule:nonzero;stroke:none"
             id="path78" />
        </g>
        <g
           id="g80"
           transform="translate(162.2056,48.6875)">
          <path
             d="M 0,0 C 0,0 -6.18,-12.617 -6.621,-14.039 -7.18,-12.328 -13.324,0 -13.324,0 h -5.375 L -6.598,-24.086 5.285,0 Z"
             style="fill:#07a64f;fill-opacity:1;fill-rule:nonzero;stroke:none"
             id="path82" />
        </g>
        <path
           d="m 169.889,24.602 h 4.953 v 24.086 h -4.953 z"
           style="fill:#07a64f;fill-opacity:1;fill-rule:nonzero;stroke:none"
           id="path84" />
        <g
           id="g86"
           transform="translate(172.3423,52.5938)">
          <path
             d="M 0,0 C 0.934,0 1.699,0.305 2.273,0.891 2.844,1.484 3.137,2.219 3.137,3.086 3.137,3.938 2.84,4.664 2.258,5.25 1.676,5.828 0.93,6.125 0.047,6.125 -0.867,6.125 -1.629,5.828 -2.211,5.25 -2.793,4.664 -3.086,3.938 -3.086,3.086 -3.086,2.219 -2.797,1.484 -2.223,0.891 -1.648,0.305 -0.902,0 0,0"
             style="fill:#07a64f;fill-opacity:1;fill-rule:nonzero;stroke:none"
             id="path88" />
        </g>
        <g
           id="g90"
           transform="translate(194.3735,35.7891)">
          <path
             d="m 0,0 c -1.012,1.133 -2.695,2.125 -5,2.953 -1.84,0.656 -3.066,1.266 -3.637,1.813 -0.558,0.539 -0.832,1.179 -0.832,1.961 0,0.875 0.321,1.578 0.981,2.14 0.664,0.555 1.582,0.844 2.734,0.844 1.703,0 3.379,-0.469 4.992,-1.391 l 0.207,-0.125 1.258,3.664 -0.141,0.086 c -1.687,0.993 -3.761,1.493 -6.167,1.493 -2.602,0 -4.715,-0.704 -6.29,-2.079 -1.578,-1.39 -2.378,-3.125 -2.378,-5.172 0,-3.062 2.234,-5.382 6.644,-6.89 1.613,-0.547 2.754,-1.125 3.391,-1.727 0.625,-0.601 0.925,-1.343 0.925,-2.297 0,-0.984 -0.363,-1.75 -1.121,-2.335 -0.757,-0.586 -1.863,-0.891 -3.277,-0.891 -2.008,0 -3.98,0.586 -5.867,1.734 l -0.219,0.133 -1.203,-3.875 0.145,-0.078 c 2.058,-1.117 4.429,-1.688 7.046,-1.688 2.856,0 5.149,0.68 6.817,2.024 1.683,1.359 2.535,3.164 2.535,5.367 0,1.727 -0.52,3.18 -1.543,4.336"
             style="fill:#07a64f;fill-opacity:1;fill-rule:nonzero;stroke:none"
             id="path92" />
        </g>
        <g
           id="g94"
           transform="translate(209.9946,27.8359)">
          <path
             d="m 0,0 c -1.91,0 -3.523,0.828 -4.793,2.461 -1.285,1.641 -1.934,3.766 -1.934,6.297 0,2.539 0.625,4.68 1.856,6.359 1.215,1.656 2.902,2.5 5.012,2.5 2.074,0 3.738,-0.851 4.937,-2.523 C 6.297,13.398 6.914,11.313 6.914,8.906 6.914,6.289 6.242,4.125 4.922,2.477 3.613,0.836 1.957,0 0,0 m 8.633,17.937 c -2.121,2.29 -4.918,3.454 -8.309,3.454 -3.402,0 -6.261,-1.172 -8.5,-3.477 -2.234,-2.305 -3.367,-5.43 -3.367,-9.305 0,-3.64 1.098,-6.64 3.262,-8.929 2.168,-2.289 4.953,-3.453 8.281,-3.453 2.133,0 4.145,0.531 5.98,1.57 1.84,1.039 3.29,2.547 4.309,4.484 1.02,1.93 1.535,4.203 1.535,6.774 0,3.609 -1.074,6.593 -3.191,8.882"
             style="fill:#07a64f;fill-opacity:1;fill-rule:nonzero;stroke:none"
             id="path96" />
        </g>
        <g
           id="g98"
           transform="translate(238.4399,49.125)">
          <path
             d="m 0,0 c -0.52,0.07 -0.93,0.102 -1.25,0.102 -1.488,0 -2.887,-0.485 -4.156,-1.438 -1.055,-0.789 -1.895,-1.852 -2.5,-3.164 l -0.25,4.063 h -4.414 l 0.011,-0.211 c 0.129,-1.946 0.196,-4.477 0.196,-7.524 v -16.351 h 4.953 v 12.726 c 0,2.32 0.578,4.125 1.723,5.375 1.136,1.235 2.515,1.867 4.097,1.867 0.582,0 1.098,-0.047 1.524,-0.14 L 0.176,-4.75 v 4.727 z"
             style="fill:#07a64f;fill-opacity:1;fill-rule:nonzero;stroke:none"
             id="path100" />
        </g>
      </g>
    </g>
  </g>
</svg>
