<?xml version="1.0" encoding="UTF-8" standalone="no"?>
<!-- Created with Inkscape (http://www.inkscape.org/) -->

<svg
   version="1.1"
   id="svg2"
   width="1122.52"
   height="793.70667"
   viewBox="0 0 1122.52 793.70667"
   sodipodi:docname="trivago_logo.ai"
   xmlns:inkscape="http://www.inkscape.org/namespaces/inkscape"
   xmlns:sodipodi="http://sodipodi.sourceforge.net/DTD/sodipodi-0.dtd"
   xmlns="http://www.w3.org/2000/svg"
   xmlns:svg="http://www.w3.org/2000/svg">
  <defs
     id="defs6">
    <clipPath
       clipPathUnits="userSpaceOnUse"
       id="clipPath16">
      <path
         d="M 0,595.28 H 841.89 V 0 H 0 Z"
         id="path14" />
    </clipPath>
  </defs>
  <sodipodi:namedview
     id="namedview4"
     pagecolor="#ffffff"
     bordercolor="#000000"
     borderopacity="0.25"
     inkscape:showpageshadow="2"
     inkscape:pageopacity="0.0"
     inkscape:pagecheckerboard="0"
     inkscape:deskcolor="#d1d1d1" />
  <g
     id="g8"
     inkscape:groupmode="layer"
     inkscape:label="trivago_logo"
     transform="matrix(1.3333333,0,0,-1.3333333,0,793.70667)">
    <g
       id="g10">
      <g
         id="g12"
         clip-path="url(#clipPath16)">
        <g
           id="g18"
           transform="translate(219.9704,343.7112)">
          <path
             d="m 0,0 h 26.711 v -14.058 h 0.264 c 2.813,5.623 6.152,9.29 10.018,11.922 3.866,2.641 8.731,3.992 14.592,3.992 1.521,0 3.083,-0.048 4.605,-0.162 1.524,-0.122 2.855,-0.339 4.261,-0.688 v -24.083 c -2.109,0.588 -3.763,1.027 -5.576,1.317 -1.816,0.291 -3.743,0.442 -5.732,0.442 -5.042,0 -9.036,-0.707 -11.964,-2.112 -2.927,-1.401 -5.186,-3.37 -6.773,-5.886 -1.578,-2.52 -2.568,-5.538 -3.034,-9.049 -0.471,-3.519 -0.661,-7.384 -0.661,-11.606 V -85.756 H 0 V 0"
             style="fill:#2d74b9;fill-opacity:1;fill-rule:nonzero;stroke:none"
             id="path20" />
        </g>
        <g
           id="g22"
           transform="translate(285.6865,366.2701)">
          <path
             d="m 0,0 c 0,3.867 1.367,7.165 4.103,9.899 2.739,2.741 6.037,4.111 9.9,4.111 3.869,0 7.17,-1.37 9.903,-4.111 2.737,-2.734 4.106,-6.032 4.106,-9.899 0,-3.863 -1.369,-7.163 -4.106,-9.895 -2.733,-2.745 -6.034,-4.112 -9.903,-4.112 -3.863,0 -7.161,1.367 -9.9,4.112 C 1.367,-7.163 0,-3.863 0,0 m 1.061,-22.559 h 26.008 v -85.756 H 1.061 Z"
             style="fill:#2d74b9;fill-opacity:1;fill-rule:nonzero;stroke:none"
             id="path24" />
        </g>
        <g
           id="g26"
           transform="translate(464.5869,268.4987)">
          <path
             d="m 0,0 h -0.479 c -2.929,-4.218 -6.828,-7.707 -11.682,-9.695 -4.868,-1.999 -9.993,-2.92 -15.383,-2.92 -3.983,0 -7.819,0.592 -11.512,1.706 -3.69,1.108 -6.942,2.799 -9.753,5.026 -2.812,2.226 -5.04,4.989 -6.68,8.272 -1.646,3.275 -2.461,7.088 -2.461,11.425 0,4.92 0.909,9.085 2.727,12.482 1.813,3.397 4.271,6.215 7.378,8.439 3.107,2.228 6.652,3.952 10.634,5.184 3.982,1.231 8.112,2.138 12.396,2.727 4.271,0.582 8.549,0.934 12.829,1.057 4.274,0.114 8.226,0.176 11.859,0.176 0,4.682 -1.663,8.405 -5.006,11.158 -3.338,2.754 -7.296,4.129 -11.865,4.129 -4.335,0 -8.29,-0.909 -11.863,-2.722 -3.575,-1.819 -6.767,-4.31 -9.578,-7.471 l -14.063,14.414 c 4.92,4.568 10.663,7.997 17.226,10.278 6.561,2.29 13.358,3.43 20.39,3.43 7.73,0 14.084,-0.967 19.068,-2.901 4.976,-1.935 8.961,-4.779 11.951,-8.528 2.987,-3.749 4.953,-8.342 6.123,-13.794 1.168,-5.45 1.643,-11.749 1.643,-18.895 v -43.521 l -23.899,0 z m -6.629,26.711 c -1.989,0 -4.481,0.058 -7.471,-0.118 -2.987,-0.179 -5.859,-0.605 -8.61,-1.423 -2.751,-0.819 -5.098,-2.016 -7.031,-3.651 -1.932,-1.646 -2.899,-3.907 -2.899,-6.839 0,-3.166 1.347,-5.498 4.044,-7.021 2.693,-1.52 5.504,-2.283 8.433,-2.283 2.578,0 5.069,0.355 7.471,1.061 2.403,0.703 4.54,1.699 6.415,2.99 1.875,1.287 3.432,2.923 4.55,4.92 C -0.619,16.337 0,18.678 0,21.379 v 5.332 h -6.629"
             style="fill:#e37b20;fill-opacity:1;fill-rule:nonzero;stroke:none"
             id="path28" />
        </g>
        <g
           id="g30"
           transform="translate(587.5861,300.7719)">
          <path
             d="m 0,0 c 0,6.794 1.115,12.946 3.335,18.46 2.23,5.5 5.274,10.217 9.15,14.141 3.866,3.928 8.423,6.943 13.673,9.055 5.249,2.111 10.84,3.169 16.777,3.169 5.934,0 11.528,-1.058 16.774,-3.169 5.249,-2.112 9.802,-5.127 13.676,-9.055 3.869,-3.924 6.92,-8.641 9.14,-14.141 C 84.755,12.946 85.87,6.794 85.87,0 c 0,-6.794 -1.115,-12.945 -3.345,-18.452 -2.22,-5.51 -5.271,-10.227 -9.14,-14.149 -3.874,-3.927 -8.427,-6.945 -13.676,-9.048 -5.246,-2.111 -10.84,-3.169 -16.774,-3.169 -5.937,0 -11.528,1.058 -16.777,3.169 -5.25,2.103 -9.807,5.121 -13.673,9.048 -3.876,3.922 -6.92,8.639 -9.15,14.149 C 1.115,-12.945 0,-6.794 0,0 m 23.849,0 c 0,-6.442 1.675,-11.659 5.009,-15.639 3.345,-3.984 8.033,-5.974 14.077,-5.974 6.045,0 10.732,1.99 14.07,5.974 3.339,3.98 5.013,9.197 5.013,15.639 0,6.443 -1.674,11.659 -5.013,15.644 -3.338,3.98 -8.025,5.977 -14.07,5.977 -6.044,0 -10.732,-1.997 -14.077,-5.977 C 25.524,11.659 23.849,6.443 23.849,0"
             style="fill:#a3181a;fill-opacity:1;fill-rule:nonzero;stroke:none"
             id="path32" />
        </g>
        <g
           id="g34"
           transform="translate(688.5087,345.6316)">
          <path
             d="m 0,0 c -7.565,0 -13.69,-6.132 -13.69,-13.692 0,-7.562 6.125,-13.688 13.69,-13.688 7.556,0 13.693,6.126 13.693,13.688 C 13.693,-6.132 7.556,0 0,0 m 0,-24.825 c -6.153,0 -11.133,4.984 -11.133,11.133 0,6.151 4.98,11.135 11.133,11.135 6.145,0 11.133,-4.984 11.133,-11.135 0,-6.149 -4.988,-11.133 -11.133,-11.133"
             style="fill:#b4b6b7;fill-opacity:1;fill-rule:nonzero;stroke:none"
             id="path36" />
        </g>
        <g
           id="g38"
           transform="translate(695.6524,325.5154)">
          <path
             d="m 0,0 h -4.045 l -3.684,4.842 h -1.19 V 0 h -3.299 v 13.204 h 5.317 c 0.731,0 1.37,-0.051 1.912,-0.141 0.548,-0.093 1.048,-0.278 1.513,-0.571 0.468,-0.298 0.845,-0.683 1.125,-1.146 0.277,-0.463 0.417,-1.052 0.417,-1.772 0,-1.01 -0.227,-1.826 -0.686,-2.46 C -3.077,6.487 -3.684,5.987 -4.445,5.609 Z m -5.341,9.159 c 0,0.329 -0.062,0.617 -0.19,0.854 -0.129,0.243 -0.343,0.426 -0.634,0.553 -0.204,0.093 -0.438,0.149 -0.693,0.172 -0.255,0.023 -0.57,0.034 -0.95,0.034 H -8.919 V 7.218 h 0.951 c 0.466,0 0.855,0.028 1.176,0.085 0.326,0.056 0.597,0.176 0.821,0.359 0.214,0.164 0.373,0.363 0.47,0.591 0.105,0.231 0.16,0.536 0.16,0.906"
             style="fill:#b4b6b7;fill-opacity:1;fill-rule:nonzero;stroke:none"
             id="path40" />
        </g>
        <g
           id="g42"
           transform="translate(553.1359,285.0188)">
          <path
             d="m 0,0 c -3.349,-3.997 -8.052,-5.995 -14.113,-5.995 -6.066,0 -10.769,1.998 -14.126,5.995 -3.345,3.994 -5.025,9.227 -5.025,15.691 0,6.465 1.68,11.698 5.025,15.697 3.357,3.994 8.06,5.998 14.126,5.998 6.061,0 10.764,-2.004 14.113,-5.998 C 3.352,27.389 5.031,22.156 5.031,15.691 5.031,9.227 3.352,3.994 0,0 M 6.573,58.775 V 47.285 H 6.177 c -0.462,0.63 -1.108,1.587 -2.994,3.207 -2.49,2.138 -4.306,3.149 -6.766,4.51 -2.438,1.35 -5.315,2.508 -8.436,3.339 -3.117,0.82 -7.134,1.494 -10.895,1.494 -6.112,0 -11.698,-1.668 -16.518,-4.188 -4.82,-2.527 -8.348,-5.096 -11.569,-9.372 -3.172,-4.211 -5.025,-8.435 -6.513,-13.942 -1.486,-5.499 -1.858,-11.829 -1.858,-17.471 0,-6.464 0.974,-12.59 2.553,-18.13 1.587,-5.573 4.147,-10.599 7.458,-14.394 3.602,-4.13 7.301,-6.263 12.474,-8.44 5.174,-2.175 10.674,-2.964 17.027,-2.895 4.02,0.044 7.928,0.929 12.443,2.669 5.503,2.12 9.347,6.085 10.863,8.227 h 0.306 v -8.311 c 0,-6.113 -1.334,-11.135 -5.149,-15.074 -3.822,-3.937 -9.394,-6.053 -17.508,-6.053 -5.404,0 -8.801,-0.111 -14.299,1.375 -4.78,1.291 -10.792,3.566 -15.251,6.836 l -12.826,-18.826 c 6.836,-4.95 13.018,-7.997 20.437,-9.962 7.346,-1.945 14.869,-2.558 22.508,-2.558 16.694,0 28.509,4.203 36.682,12.611 8.168,8.402 11.501,20.72 11.501,36.948 v 79.89 H 6.573"
             style="fill:#a3181a;fill-opacity:1;fill-rule:nonzero;stroke:none"
             id="path44" />
        </g>
        <g
           id="g46"
           transform="translate(212.9412,322.6236)">
          <path
             d="m 0,0 h -26.008 v -28.708 c 0,-2.341 0.29,-4.478 0.548,-6.415 0.257,-1.927 0.92,-3.598 1.821,-5.007 0.9,-1.408 2.326,-2.49 4.197,-3.247 1.87,-0.764 4.374,-1.143 7.468,-1.143 1.543,0 3.664,0.141 6.179,0.436 2.515,0.293 4.389,0.97 5.795,2.018 V -64.03 c -3.515,-1.054 -6.653,-1.758 -10.137,-2.112 -3.476,-0.351 -6.933,-0.527 -10.284,-0.527 -4.906,0 -9.433,0.465 -13.553,1.407 -4.128,0.932 -7.746,2.43 -10.839,4.48 -3.097,2.049 -5.588,4.716 -7.328,7.998 -1.736,3.283 -2.687,7.261 -2.687,11.95 V 0 h -18.276 v 21.088 h 18.276 v 25.305 h 28.82 V 21.088 H 0 V 0"
             style="fill:#2d74b9;fill-opacity:1;fill-rule:nonzero;stroke:none"
             id="path48" />
        </g>
        <g
           id="g50"
           transform="translate(316.2115,343.7112)">
          <path
             d="m 0,0 h 28.473 l 21.621,-58.342 h 0.349 L 70.483,0 H 97.021 L 63.273,-85.756 H 35.327 Z"
             style="fill:#e37b20;fill-opacity:1;fill-rule:nonzero;stroke:none"
             id="path52" />
        </g>
      </g>
    </g>
  </g>
</svg>
