<?xml version="1.0" encoding="UTF-8"?>
<svg version="1.1" xmlns="http://www.w3.org/2000/svg" width="300" height="250">
<path d="M0 0 C99 0 198 0 300 0 C300 82.5 300 165 300 250 C201 250 102 250 0 250 C0 167.5 0 85 0 0 Z " fill="#FEFEFE" transform="translate(0,0)"/>
<path d="M0 0 C0.33 0 0.66 0 1 0 C1.57293494 5.46230987 2.14250277 10.92495654 2.70898438 16.38793945 C2.90207422 18.24545725 3.09607586 20.10288051 3.29101562 21.96020508 C3.57142373 24.63338136 3.84852652 27.30688302 4.125 29.98046875 C4.21249512 30.80773972 4.29999023 31.63501068 4.39013672 32.48735046 C4.78580696 36.34326937 5.10966483 40.11717951 5 44 C5.81082031 44.04898438 6.62164062 44.09796875 7.45703125 44.1484375 C31.80325512 45.79230361 52.91725992 54.56726786 71 71 C75.60350025 68.06159558 79.74128815 64.81322221 83.875 61.25 C84.46796875 60.74339844 85.0609375 60.23679688 85.671875 59.71484375 C87.11705495 58.47944798 88.55888175 57.24013143 90 56 C90 60.05585689 88.49443033 60.96236265 85.75 63.875 C84.15849641 65.57572442 82.57510364 67.28407583 81 69 C79.83210938 70.27230469 79.83210938 70.27230469 78.640625 71.5703125 C76.80161008 73.79419512 76.80161008 73.79419512 77.03125 76.046875 C78.22995098 78.46361084 79.71471237 80.22384023 81.5 82.25 C95.36327785 99.14975881 103.42177495 120.13183233 103 142 C103.65782471 142.0501123 104.31564941 142.10022461 104.9934082 142.15185547 C119.02135754 143.22783176 133.01796632 144.43347894 147 146 C147 146.33 147 146.66 147 147 C137.42610446 148.59173293 127.84642536 149.70253809 118.1875 150.625 C116.80140009 150.7600867 115.41533215 150.89550175 114.02929688 151.03125 C110.68650943 151.3573756 107.34329756 151.67914611 104 152 C103.34 157.28 102.68 162.56 102 168 C98.00001618 166.00000809 94.96594418 163.58580757 91.625 160.6875 C90.51320275 159.73286101 89.40122446 158.77843283 88.2890625 157.82421875 C87.74660889 157.34662109 87.20415527 156.86902344 86.64526367 156.37695312 C85.03189848 154.97898803 85.03189848 154.97898803 83.28637695 153.84179688 C80.98512364 152.23267308 79.24302883 150.8140436 78.42382812 148.07006836 C78.13551549 145.74723303 78.01351075 143.46426002 77.9375 141.125 C76.46928011 120.22540063 66.93438936 102.23300302 51.8125 87.8125 C32.70025111 71.62017802 10.33900175 68.3945715 -14 70 C-28.6606411 72.103203 -42.07967428 80.34045789 -53 90 C-53.91845703 90.77730469 -53.91845703 90.77730469 -54.85546875 91.5703125 C-67.80620021 103.36525786 -75.63284926 121.80036162 -77 139 C-76.93554688 139.92296875 -76.87109375 140.8459375 -76.8046875 141.796875 C-76.63345631 145.74660779 -76.75708209 148.54163154 -79.4140625 151.65917969 C-83.07621266 155.25074876 -87.04793381 158.4372539 -91.12255859 161.54589844 C-92.92153813 162.93923031 -94.64250068 164.39471116 -96.36328125 165.8828125 C-99 168 -99 168 -101 168 C-101.33848652 166.10507994 -101.67056911 164.20901534 -102 162.3125 C-102.185625 161.25675781 -102.37125 160.20101562 -102.5625 159.11328125 C-102.95068074 156.35095938 -103.08259976 153.78257957 -103 151 C-104.14726563 151.02835938 -105.29453125 151.05671875 -106.4765625 151.0859375 C-113.07422554 151.08335322 -119.62340065 150.44341821 -126.18603516 149.828125 C-128.39022311 149.62358737 -130.59534129 149.43269062 -132.80078125 149.2421875 C-134.20840964 149.11280673 -135.61596492 148.98262739 -137.0234375 148.8515625 C-138.92488525 148.67874756 -138.92488525 148.67874756 -140.86474609 148.50244141 C-144 148 -144 148 -147 146 C-142.66314437 145.56523523 -138.32559844 145.13837317 -133.98730469 144.71826172 C-132.5170486 144.57482993 -131.04698746 144.42938279 -129.57714844 144.28173828 C-120.68896076 143.39049436 -111.94698661 142.76827948 -103 143 C-102.91363281 141.8140625 -102.82726562 140.628125 -102.73828125 139.40625 C-100.8758753 116.86762405 -93.20005657 92.80394808 -76 77 C-77.5194373 72.1396313 -80.32918654 68.93920644 -83.625 65.1875 C-84.140625 64.59001953 -84.65625 63.99253906 -85.1875 63.37695312 C-86.45246272 61.91287591 -87.72543834 60.45572845 -89 59 C-85.60812309 59 -85.24071549 59.33772948 -82.78515625 61.44140625 C-81.87926758 62.19260742 -81.87926758 62.19260742 -80.95507812 62.95898438 C-79.69369969 64.02770646 -78.43587134 65.10063282 -77.18164062 66.17773438 C-76.57642578 66.67724609 -75.97121094 67.17675781 -75.34765625 67.69140625 C-74.80117432 68.15748291 -74.25469238 68.62355957 -73.69165039 69.10375977 C-72.0178794 70.18944786 -72.0178794 70.18944786 -69.97436523 69.80444336 C-67.24764023 68.69345549 -65.40781428 66.74452783 -63.23046875 64.80859375 C-46.39080561 51.15401576 -25.51705725 43.64981281 -4 44 C-3.92652344 42.54207031 -3.92652344 42.54207031 -3.8515625 41.0546875 C-3.39335681 32.43787495 -2.7719524 23.84459433 -2 15.25 C-1.8755249 13.84016846 -1.8755249 13.84016846 -1.74853516 12.40185547 C-1.66651855 11.51127441 -1.58450195 10.62069336 -1.5 9.703125 C-1.4278125 8.91583008 -1.355625 8.12853516 -1.28125 7.31738281 C-0.98108783 4.84417157 -0.51764676 2.43617507 0 0 Z " fill="#513BF6" transform="translate(147,10)"/>
<path d="M0 0 C3.86328627 1.5847358 6.28876923 4.05956887 9.203125 7.0078125 C9.6857782 7.49329559 10.1684314 7.97877869 10.66571045 8.47897339 C12.19858562 10.02299866 13.72434004 11.57384824 15.25 13.125 C16.29120361 14.17624009 17.33286541 15.22702657 18.375 16.27734375 C20.92199464 18.84633004 23.46265177 21.42148161 26 24 C28.75536417 22.9466137 31.08819963 21.94191732 33.5625 20.3125 C36 19 36 19 37.94042969 19.22216797 C40.38454698 20.14523076 41.58351055 21.25402038 43.390625 23.1328125 C44.01412842 23.77114014 44.63763184 24.40946777 45.2800293 25.06713867 C46.25516479 26.08578003 46.25516479 26.08578003 47.25 27.125 C48.59317329 28.50053502 49.9382057 29.87425728 51.28515625 31.24609375 C52.24832764 32.22811768 52.24832764 32.22811768 53.23095703 33.22998047 C55.86353786 35.86401455 58.63816188 38.30047779 61.48046875 40.703125 C63.42810081 42.36537139 65.22746837 44.15361289 67 46 C70.06785538 44.94816387 72.03348145 43.97070373 74.5 41.8125 C77 40 77 40 79.32421875 40.06640625 C82.94262437 41.32888646 84.69423675 43.34380576 87.3125 46.125 C91.02635946 50.03946209 94.83217065 53.63843314 98.91870117 57.16162109 C101.00661402 59.00584206 103.00833388 60.91191385 105 62.859375 C105.99 63.82037109 105.99 63.82037109 107 64.80078125 C108.34116719 66.10789537 109.67445604 67.42313874 111 68.74609375 C115.40487526 72.98750684 119.14426197 75.31661421 125 77 C126.45876963 77.47522531 127.91709008 77.95183126 129.375 78.4296875 C130.9159556 78.91372787 132.45764802 79.39542768 134 79.875 C134.81509033 80.13039551 135.63018066 80.38579102 136.4699707 80.64892578 C138.97933519 81.43469867 141.48963041 82.217445 144 83 C145.59772233 83.49978882 147.19538076 83.99978193 148.79296875 84.5 C152.52792131 85.66899797 156.26370315 86.83530608 160 88 C160 88.33 160 88.66 160 89 C137.92340514 89.24469132 115.92894193 88.65269459 94 86 C93.01 77.09 93.01 77.09 92 68 C88.42173221 72.27565402 88.42173221 72.27565402 84.84985352 76.55664062 C83.58812163 78.05616308 82.29506103 79.52916626 81 81 C80.67 81 80.34 81 80 81 C79.49515526 77.75073335 78.99697406 74.50047901 78.5 71.25 C78.35691406 70.32960938 78.21382812 69.40921875 78.06640625 68.4609375 C77.93105469 67.57148438 77.79570312 66.68203125 77.65625 65.765625 C77.53056641 64.94868164 77.40488281 64.13173828 77.27539062 63.29003906 C77 61 77 61 77 57 C73.04 57.66 69.08 58.32 65 59 C65 62.51716303 65.82445585 63.37121748 68 66 C61.42996084 70.26186982 54.61293757 73.9945428 47.70825195 77.67602539 C45.80394647 78.69206372 43.90283616 79.71390383 42.00195312 80.73632812 C40.77883148 81.39097197 39.55553044 82.04528078 38.33203125 82.69921875 C37.23608643 83.28533936 36.1401416 83.87145996 35.01098633 84.4753418 C32.37667283 85.80926605 29.76060838 86.95872632 27 88 C30.59797321 84.02329276 34.83206405 81.22391095 39.25 78.25 C39.99507812 77.74339844 40.74015625 77.23679687 41.5078125 76.71484375 C43.33594311 75.47265244 45.166687 74.23452418 47 73 C44.87341893 69.75560067 42.77633929 66.57239584 40.25 63.625 C39.5075 62.75875 38.765 61.8925 38 61 C37.05125 61.639375 36.1025 62.27875 35.125 62.9375 C32 65 32 65 30 66 C30.44468996 61.84956039 30.96567679 57.904464 32.0625 53.875 C33.24142202 49.0021223 33.94922423 45.74024442 31.5 41.25 C31.005 40.5075 30.51 39.765 30 39 C30 38.34 30 37.68 30 37 C28.83984375 38.06927734 28.83984375 38.06927734 27.65625 39.16015625 C22.36661707 44.02692485 17.07098765 48.87441923 11.62109375 53.5625 C9.95850937 54.99353735 9.95850937 54.99353735 8.41015625 56.6875 C7 58 7 58 5 58 C5.3081665 58.62567871 5.61633301 59.25135742 5.93383789 59.89599609 C7.3182817 62.71838373 8.69051222 65.54653791 10.0625 68.375 C10.54783203 69.35984375 11.03316406 70.3446875 11.53320312 71.359375 C11.98759766 72.30039063 12.44199219 73.24140625 12.91015625 74.2109375 C13.33433838 75.08024902 13.75852051 75.94956055 14.19555664 76.84521484 C14.46102295 77.55629395 14.72648926 78.26737305 15 79 C14.67 79.66 14.34 80.32 14 81 C13.48953125 80.42894531 12.9790625 79.85789062 12.453125 79.26953125 C6.03794854 72.11501708 -0.46984071 65.04947822 -7 58 C-5.77233908 54.57638222 -4.86245568 52.85285957 -2.3125 50.125 C1.81822466 44.6012157 -0.19359507 37.40380384 -1 31 C-1.18815004 29.18756736 -1.37578406 27.37508094 -1.5625 25.5625 C-1.7790625 23.7990625 -1.7790625 23.7990625 -2 22 C-2.55429688 22.5053125 -3.10859375 23.010625 -3.6796875 23.53125 C-4.76636719 24.50578125 -4.76636719 24.50578125 -5.875 25.5 C-6.95394531 26.47453125 -6.95394531 26.47453125 -8.0546875 27.46875 C-10 29 -10 29 -12 29 C-12 33.62 -12 38.24 -12 43 C-14.48724903 39.68366796 -16.23109915 36.70626844 -18 33 C-19.12894876 33.93274109 -20.25300876 34.87140122 -21.375 35.8125 C-22.00148438 36.33457031 -22.62796875 36.85664063 -23.2734375 37.39453125 C-25.2221048 39.08225739 -25.2221048 39.08225739 -27 42 C-26.67725098 42.51908936 -26.35450195 43.03817871 -26.02197266 43.57299805 C-24.55222171 45.94198711 -23.0885697 48.31468762 -21.625 50.6875 C-21.11710937 51.50412109 -20.60921875 52.32074219 -20.0859375 53.16210938 C-19.59609375 53.95810547 -19.10625 54.75410156 -18.6015625 55.57421875 C-18.15119629 56.30213623 -17.70083008 57.03005371 -17.23681641 57.7800293 C-15.93083599 60.12414298 -14.94494422 62.49107667 -14 65 C-15.14275391 64.79117188 -15.14275391 64.79117188 -16.30859375 64.578125 C-19.86661954 64.2049987 -22.50863774 64.14905866 -26 65 C-29.76147245 68.58835029 -32.37130462 72.5391836 -35 77 C-36.63129887 72.93714243 -35.29968777 69.79897816 -34.0625 65.75 C-33.68222656 64.48671875 -33.30195312 63.2234375 -32.91015625 61.921875 C-32.60980469 60.95765625 -32.30945313 59.9934375 -32 59 C-35.3 59.99 -38.6 60.98 -42 62 C-39.8564072 56.53014251 -37.67788341 51.23299852 -35 46 C-37.23141932 47.89323398 -39.46015996 49.78947696 -41.6875 51.6875 C-42.62625977 52.48317383 -42.62625977 52.48317383 -43.58398438 53.29492188 C-47.21689118 56.39525595 -50.67385924 59.5721035 -54 63 C-50.7 64.65 -47.4 66.3 -44 68 C-44 72.29 -44 76.58 -44 81 C-49.12600561 79.91266548 -54.05918728 78.77362508 -59 77 C-59.33773437 77.5053125 -59.67546875 78.010625 -60.0234375 78.53125 C-60.69246094 79.50578125 -60.69246094 79.50578125 -61.375 80.5 C-62.03628906 81.47453125 -62.03628906 81.47453125 -62.7109375 82.46875 C-63.13632813 82.9740625 -63.56171875 83.479375 -64 84 C-64.66 84 -65.32 84 -66 84 C-66 77.07 -66 70.14 -66 63 C-68.3925 64.629375 -70.785 66.25875 -73.25 67.9375 C-80.06444462 72.27213392 -85.28219595 73.60842577 -93.3125 73.375 C-99.57989235 73.24968796 -103.61073421 73.53413853 -108.30712891 77.93603516 C-110.70029243 80.52170746 -112.85618816 83.20055638 -115 86 C-116.30270093 87.50851799 -117.61367135 89.00998861 -118.9375 90.5 C-119.4634375 91.11875 -119.989375 91.7375 -120.53125 92.375 C-122.48159686 94.53283056 -124.65189925 96.29229036 -127 98 C-112.39693395 68.08726794 -112.39693395 68.08726794 -103.38769531 63.73925781 C-99.87139236 63.1226676 -96.76404346 63.32127472 -93.234375 63.72583008 C-88.38734512 64.25477941 -85.70595503 64.28719563 -81.6171875 61.41015625 C-79.00153033 59.29605103 -76.58899936 57.01474816 -74.1640625 54.6875 C-71.19293441 51.94436784 -69.14563469 51.08396222 -65 51 C-63.7315625 51.2990625 -62.463125 51.598125 -61.15625 51.90625 C-58.37004922 52.31411589 -57.324534 52.20087328 -54.8984375 50.69921875 C-52.64759001 48.72661255 -50.56860836 46.66280728 -48.5 44.5 C-47.07421579 43.07161873 -45.64713839 41.64452708 -44.21875 40.21875 C-43.51959473 39.50992676 -42.82043945 38.80110352 -42.10009766 38.07080078 C-39.459345 35.46688726 -36.69013038 33.04403233 -33.87988281 30.62597656 C-31.06605582 28.19219893 -28.34757407 25.65981034 -25.625 23.125 C-17.18508885 15.30228491 -8.61114049 7.63354725 0 0 Z " fill="#523DF6" transform="translate(137,121)"/>
</svg>
