<svg xmlns="http://www.w3.org/2000/svg" xmlns:xlink="http://www.w3.org/1999/xlink" class="hide"><symbol id="icon-chevron" viewBox="0 0 8 14"><path d="M8 7 .5 13.062V.938L8 7Z"/></symbol><symbol id="icon-close" viewBox="0 0 25 25"><path d="M12.5 9.723 22.223 0 25 2.777 15.277 12.5 25 22.223 22.223 25 12.5 15.277 2.777 25 0 22.223 9.723 12.5 0 2.777 2.777 0 12.5 9.723Z"/></symbol><symbol id="icon-copy" viewBox="0 0 40 40"><g fill="none"><path d="M18.78 21.123c.312.426.71.78 1.169 1.035a3.583 3.583 0 0 0 3.015.22 3.63 3.63 0 0 0 1.302-.854l2.183-2.229a3.757 3.757 0 0 0 1.02-2.613 3.754 3.754 0 0 0-1.065-2.594A3.601 3.601 0 0 0 23.864 13a3.598 3.598 0 0 0-2.56 1.043l-1.25 1.27" stroke="#000" stroke-width="2.5" stroke-linecap="round" stroke-linejoin="round"/><path d="M21.69 19.637a3.66 3.66 0 0 0-1.169-1.035 3.582 3.582 0 0 0-3.015-.22 3.63 3.63 0 0 0-1.302.854l-2.183 2.229a3.757 3.757 0 0 0-1.02 2.613c.007.974.39 1.905 1.065 2.594a3.601 3.601 0 0 0 2.54 1.088 3.599 3.599 0 0 0 2.56-1.043l1.244-1.27" stroke="#000" stroke-width="2.5" stroke-linecap="round" stroke-linejoin="round"/></g></symbol><symbol id="icon-email" viewBox="0 0 64 64"><path d="m32 35.077 18.462-16H13.538zm-4.987-1.77L32 37.398l4.909-4.093 13.553 11.617H13.538zM12.307 43.693V20.307L25.846 32zm39.386 0V20.307L38.154 32z"/></symbol><symbol id="icon-facebook" viewBox="0 0 1080 1080"><path d="M665.47 360.82h-59.71c-9.58 0-23.91 4.76-23.91 26.29v54.96h83.63l-9.58 95.58h-74.05V810H469.49V539.97h-54.96v-95.52h52.58v-62.16c0-43 21.47-112.29 112.29-112.29h83.63v90.76l2.44.06Z"/></symbol><symbol id="icon-instagram" viewBox="0 0 1080 1080"><path d="M805.22 428.67c-2.36-28.42-4.72-47.35-11.85-66.34s-16.57-33.14-30.78-47.35-30.78-23.7-47.35-30.78c-16.57-7.07-35.5-11.85-66.34-11.85-28.42-2.36-37.92-2.36-111.33-2.36s-82.91 0-111.33 2.36c-26.06 2.36-44.99 7.07-63.92 11.85-16.57 7.07-33.14 18.93-47.35 30.78-14.21 14.21-23.7 30.78-30.78 47.35-4.72 18.93-9.49 37.92-11.85 66.34-2.36 28.42-2.36 37.92-2.36 111.33s0 82.91 2.36 111.33 4.72 47.35 11.85 66.34c7.14 18.99 16.57 33.14 30.78 47.35s30.78 23.7 47.35 30.78c16.57 7.07 35.5 11.85 66.34 11.85 28.42 2.36 37.92 2.36 111.33 2.36s82.91 0 111.33-2.36 47.35-4.72 66.34-11.85c35.5-14.21 63.92-42.63 78.13-78.13 7.07-16.57 11.85-35.5 11.85-66.34C810 622.91 810 613.41 810 540s-2.42-82.91-4.78-111.33Zm-47.35 220.3c-2.36 26.06-4.72 40.27-9.49 49.71-9.49 23.7-28.42 42.63-52.13 52.13-9.49 4.72-23.7 7.07-49.71 9.49-28.42 2.36-37.92 2.36-108.91 2.36s-80.55 0-108.91-2.36c-26.06-2.36-40.27-4.72-49.71-9.49-11.85-4.72-21.28-11.85-30.78-18.93-9.49-9.49-16.57-18.93-18.93-30.78-4.72-9.49-7.07-23.7-9.49-49.71-2.36-28.42-2.36-37.92-2.36-108.91s0-80.55 2.36-108.91c2.36-28.42 7.07-42.63 9.49-52.13 4.72-11.85 11.85-23.7 21.28-30.78 7.07-9.49 18.93-16.57 30.78-21.28 9.49-4.72 23.7-7.07 49.71-9.49 28.42-2.36 37.92-2.36 108.91-2.36s80.55 0 108.91 2.36c26.06 2.36 40.27 4.72 49.71 9.49 11.85 4.72 21.28 11.85 30.78 18.93 7.07 9.49 14.21 21.28 18.93 33.14 4.72 9.49 7.07 23.7 9.49 49.71 2.36 28.42 2.36 37.92 2.36 108.91s.06 80.48-2.3 108.91Zm-42.63-253.43c0 16.57-14.21 33.14-33.14 33.14s-33.14-14.21-33.14-33.14 14.21-33.14 33.14-33.14c18.93 2.36 33.14 16.57 33.14 33.14ZM540 402.67c-75.77 0-137.33 61.56-137.33 137.33S464.17 677.33 540 677.33 677.39 615.77 677.39 540 615.77 402.67 540 402.67Zm0 227.31c-49.71 0-89.98-40.27-89.98-89.98s40.27-89.98 89.98-89.98 89.98 40.27 89.98 89.98-40.27 89.98-89.98 89.98Z"/></symbol><symbol id="icon-linkedin" viewBox="0 0 1080 1080"><path d="M810 798.04H692.92V611.65c0-47.77-16.72-78.82-59.73-78.82-31.05 0-50.15 21.47-59.73 43.01-2.38 7.14-4.76 16.72-4.76 28.67v193.52H451.62s2.38-317.8 0-348.86H568.7v50.15c14.34-23.92 43.01-57.35 105.12-57.35 76.45 0 133.79 50.15 133.79 157.71v198.28l2.38.06ZM334.49 401.42c-40.63 0-64.49-26.3-64.49-59.73s26.3-59.73 66.93-59.73 64.49 26.3 64.49 59.73c-2.44 33.43-28.67 59.73-66.93 59.73m57.35 396.62H274.76V449.18h117.08v348.86Z"/></symbol><symbol id="icon-quote-red-bg" viewBox="0 0 129 130"><circle cx="64.5" cy="65.029" r="64.5" fill="#D83C29"/><path d="M61.624 76.463c0 8.305-6.645 15.02-15.04 15.02-8.743 0-15.388-7.422-15.388-17.14 0-10.78 6.995-23.857 15.738-35.873h14.34c-5.77 8.659-9.793 15.904-12.416 23.149 7.345 1.06 12.766 7.422 12.766 14.844Zm36.723 0c0 8.305-6.645 15.02-15.04 15.02-8.743 0-15.388-7.422-15.388-17.14 0-10.78 6.995-23.857 15.739-35.873h14.339c-5.77 8.659-9.793 15.904-12.416 23.149 7.345 1.06 12.766 7.422 12.766 14.844Z" fill="#fff"/></symbol><symbol id="icon-search" viewBox="0 0 35 35"><g fill="none"><path d="M26.25 15.513c0 3.719-3.091 6.763-6.942 6.763-3.85 0-6.942-3.044-6.942-6.763 0-3.718 3.091-6.763 6.942-6.763 3.85 0 6.942 3.045 6.942 6.763Z" stroke="#000" stroke-width="1.5"/><path transform="scale(-1.0117 -.98816) rotate(-45 -31.719 7.4)" stroke="#000" stroke-width="1.5" d="M0-.75h10.753"/></g></symbol><symbol id="icon-tiktok" viewBox="0 0 1080 1080"><path d="M771.98 488.85h-14.27c-47.56 0-92.75-23.81-121.3-64.2v221.22c0 90.38-73.74 164.13-164.13 164.13s-164.25-73.8-164.25-164.19 73.74-164.13 164.13-164.13h9.54v80.91h-9.54c-45.19 0-83.28 38.09-83.28 83.28s38.09 83.28 83.28 83.28 88.02-35.66 88.02-83.28V270h76.11c9.6 69 66.7 123.67 135.64 128.47v90.38h.06Z"/></symbol><symbol id="icon-website" viewBox="0 0 40 40"><g fill="none"><path d="M18.78 21.123c.312.426.71.78 1.169 1.035a3.583 3.583 0 0 0 3.015.22 3.63 3.63 0 0 0 1.302-.854l2.183-2.229a3.757 3.757 0 0 0 1.02-2.613 3.754 3.754 0 0 0-1.065-2.594A3.601 3.601 0 0 0 23.864 13a3.598 3.598 0 0 0-2.56 1.043l-1.25 1.27" stroke="#000" stroke-width="2.5" stroke-linecap="round" stroke-linejoin="round"/><path d="M21.69 19.637a3.66 3.66 0 0 0-1.169-1.035 3.582 3.582 0 0 0-3.015-.22 3.63 3.63 0 0 0-1.302.854l-2.183 2.229a3.757 3.757 0 0 0-1.02 2.613c.007.974.39 1.905 1.065 2.594a3.601 3.601 0 0 0 2.54 1.088 3.599 3.599 0 0 0 2.56-1.043l1.244-1.27" stroke="#000" stroke-width="2.5" stroke-linecap="round" stroke-linejoin="round"/></g></symbol><symbol id="icon-x" viewBox="0 0 1080 1080"><path d="M589.99 498.39 787.4 270h-47.56L568.61 467.47 432.97 270.06H275.95l206.95 299.7L275.95 810h47.56l180.77-209.32L647.03 810h157.02L589.99 498.39Zm-64.26 76.11-21.38-30.92-166.56-237.87h71.37l133.21 192.67 21.38 30.92 173.66 249.77h-71.25L525.72 574.49Z"/></symbol><symbol id="icon-youtube" viewBox="0 0 1080 1080"><path d="M810 540s0 87.62-11.85 130.25c-7.07 23.7-23.7 40.27-47.35 47.35-42.63 11.85-210.74 11.85-210.74 11.85s-168.17 0-210.74-11.85c-23.7-7.07-40.27-23.7-47.35-47.35C269.99 627.62 269.99 540 269.99 540s0-87.62 11.85-130.25c7.07-23.7 23.7-42.63 47.35-47.35 42.63-11.85 210.74-11.85 210.74-11.85s168.17 0 210.74 11.85c23.7 7.07 40.27 23.7 47.35 47.35C810 452.38 810 540 810 540m-322.13 80.55L627.62 540l-139.75-80.48v161.03Z"/></symbol></svg>